{"title":"Naruto Shippuden 95 DVBrip xvid audio castellano","uid":6213457,"size":188758016,"categoryP":"video","categoryS":"tv_shows","magnet":"?xt=urn:btih:8c15f5485550fbfe240ec54c4624aba128edec89&amp;dn=Naruto+Shippuden+95+DVBrip+xvid+audio+castellano&amp;tr=udp%3A%2F%2Ftracker.openbittorrent.com%3A80&amp;tr=udp%3A%2F%2Fopen.demonii.com%3A1337&amp;tr=udp%3A%2F%2Ftracker.coppersurfer.tk%3A6969&amp;tr=udp%3A%2F%2Fexodus.desync.com%3A6969","seeders":0,"leechers":0,"uploader":null,"files":1,"time":1299073770,"description":"\nFile size                        : 180 MiB\nDuration                         : 20mn 4s\nOverall bit rate                 : 1 254 Kbps\n\nVideo\nID                               : 0\nFormat                           : MPEG-4 Visual\nFormat profile                   : Advanced Simple@L5\nFormat settings, BVOP            : Yes\nFormat settings, QPel            : No\nFormat settings, GMC             : No warppoints\nFormat settings, Matrix          : Custom\nCodec ID                         : XVID\nCodec ID/Hint                    : XviD\nDuration                         : 20mn 4s\nBit rate                         : 1 119 Kbps\nWidth                            : 704 pixels\nHeight                           : 400 pixels\nDisplay aspect ratio             : 16:9\nFrame rate                       : 25.000 fps\nColor space                      : YUV\nChroma subsampling               : 4:2:0\nBit depth                        : 8 bits\nScan type                        : Progressive\nCompression mode                 : Lossy\nBits/(Pixel*Frame)               : 0.159\nStream size                      : 161 MiB (89%)\nWriting library                  : XviD 58\n\nAudio\nID                               : 1\nFormat                           : MPEG Audio\nFormat version                   : Version 1\nFormat profile                   : Layer 2\nCodec ID                         : 50\nDuration                         : 20mn 4s\nBit rate mode                    : Constant\nBit rate                         : 128 Kbps\nChannel(s)                       : 2 channels\nSampling rate                    : 48.0 KHz\nCompression mode                 : Lossy\nStream size                      : 18.4 MiB (10%)\nAlignment                        : Aligned on interleaves\nInterleave, duration             : 80 ms (2.00 video frames)\nInterleave, preload duration     : 504 ms\n\n","torrent":{"xt":"urn:btih:8c15f5485550fbfe240ec54c4624aba128edec89","amp;dn":"Naruto+Shippuden+95+DVBrip+xvid+audio+castellano","amp;tr":["udp%3A%2F%2Ftracker.openbittorrent.com%3A80","udp%3A%2F%2Fopen.demonii.com%3A1337","udp%3A%2F%2Ftracker.coppersurfer.tk%3A6969","udp%3A%2F%2Fexodus.desync.com%3A6969"],"infoHash":"8c15f5485550fbfe240ec54c4624aba128edec89","infoHashBuffer":{"type":"Buffer","data":[140,21,245,72,85,80,251,254,36,14,197,76,70,36,171,161,40,237,236,137]},"announce":[],"urlList":[]}}